<?xml version="1.0" standalone="no"?>
<!DOCTYPE svg PUBLIC "-//W3C//DTD SVG 20010904//EN"
 "http://www.w3.org/TR/2001/REC-SVG-20010904/DTD/svg10.dtd">
<svg version="1.0" xmlns="http://www.w3.org/2000/svg"
 width="529.000000pt" height="135.000000pt" viewBox="0 0 529.000000 135.000000"
 preserveAspectRatio="xMidYMid meet">

<g transform="translate(0.000000,135.000000) scale(0.100000,-0.100000)"
fill="#000000" stroke="none">
<path d="M544 1245 c-216 -58 -384 -226 -439 -440 -19 -75 -19 -221 0 -304 47
-196 220 -376 410 -426 76 -19 157 -19 225 1 77 23 172 119 228 233 74 147 58
147 -78 1 -56 -61 -117 -118 -134 -127 -36 -19 -111 -22 -128 -5 -18 18 5 35
95 72 73 30 107 58 107 87 0 17 -86 16 -215 -2 -119 -17 -235 -19 -289 -4 -26
7 -59 31 -97 68 -69 69 -89 125 -89 245 0 166 50 289 164 402 114 114 235 164
398 164 325 0 582 -281 555 -605 -9 -101 -38 -176 -122 -315 -42 -68 -73 -125
-71 -128 3 -2 33 25 68 61 145 146 206 358 163 561 -37 175 -165 337 -326 414
-46 22 -108 45 -137 51 -72 15 -226 13 -288 -4z"/>
<path d="M680 1092 c0 -51 2 -58 20 -58 18 0 20 7 20 58 0 51 -2 58 -20 58
-18 0 -20 -7 -20 -58z"/>
<path d="M510 1104 c0 -23 20 -55 30 -49 9 6 -10 65 -22 65 -4 0 -8 -7 -8 -16z"/>
<path d="M870 1094 c-6 -15 -13 -31 -16 -35 -3 -5 1 -9 8 -9 17 0 40 58 27 66
-5 3 -14 -7 -19 -22z"/>
<path d="M347 1012 c-8 -11 40 -58 50 -48 4 3 -5 18 -19 32 -14 14 -28 22 -31
16z m34 -29 c13 -16 12 -17 -3 -4 -10 7 -18 15 -18 17 0 8 8 3 21 -13z"/>
<path d="M1012 987 c-12 -13 -19 -27 -15 -30 7 -8 53 31 53 45 0 15 -16 8 -38
-15z"/>
<path d="M2001 872 c-65 -32 -94 -100 -81 -185 13 -88 65 -131 160 -131 109
-1 169 72 157 189 -10 95 -65 145 -159 145 -24 0 -58 -8 -77 -18z m116 -89
c29 -71 -4 -175 -51 -157 -23 9 -36 45 -36 102 0 89 57 125 87 55z"/>
<path d="M1390 855 c0 -14 5 -25 10 -25 6 0 10 -42 10 -105 0 -63 -4 -105 -10
-105 -5 0 -10 -13 -10 -30 l0 -30 60 0 60 0 0 30 c0 20 -5 30 -15 30 -12 0
-15 16 -15 80 0 44 2 80 4 80 3 0 12 -26 21 -57 9 -32 23 -82 31 -110 l15 -53
47 0 48 0 31 118 31 117 1 -87 c1 -53 -3 -88 -9 -88 -5 0 -10 -13 -10 -30 l0
-30 70 0 70 0 0 30 c0 20 -5 30 -15 30 -12 0 -15 18 -15 100 0 80 3 102 15
106 8 4 15 17 15 30 0 24 -2 24 -88 24 l-89 0 -18 -80 c-10 -44 -21 -80 -24
-80 -4 0 -15 35 -27 78 l-20 77 -87 3 -87 3 0 -26z"/>
<path d="M2330 849 c0 -17 4 -28 10 -24 6 4 10 -32 10 -99 0 -64 -4 -106 -10
-106 -5 0 -10 -13 -10 -30 l0 -30 60 0 60 0 0 30 c0 20 -5 30 -15 30 -12 0
-15 16 -15 80 0 44 2 80 5 80 2 0 9 -19 15 -42 6 -24 20 -74 31 -111 l20 -68
47 3 47 3 32 115 32 115 0 -87 c1 -72 -2 -88 -14 -88 -10 0 -15 -10 -15 -30
l0 -30 75 0 75 0 0 30 c0 20 -5 30 -15 30 -12 0 -15 18 -15 100 0 80 3 102 15
106 8 4 15 17 15 30 0 24 -2 24 -89 24 l-89 0 -17 -72 c-21 -85 -30 -100 -39
-61 -4 15 -14 52 -22 81 l-15 52 -84 0 -85 0 0 -31z"/>
<path d="M2860 850 c0 -20 5 -30 15 -30 12 0 15 -18 15 -100 0 -82 -3 -100
-15 -100 -10 0 -15 -10 -15 -30 l0 -30 135 0 135 0 0 50 0 50 -35 0 c-28 0
-35 -4 -35 -20 0 -17 -7 -20 -40 -20 l-40 0 0 40 0 40 45 0 c43 0 45 1 45 30
0 29 -2 30 -45 30 -43 0 -45 1 -45 30 0 28 2 30 40 30 33 0 40 -3 40 -20 0
-16 7 -20 35 -20 l35 0 0 50 0 50 -135 0 -135 0 0 -30z"/>
<path d="M3230 850 c0 -16 5 -30 10 -30 6 0 10 -40 10 -100 0 -60 -4 -100 -10
-100 -5 0 -10 -13 -10 -30 l0 -30 60 0 60 0 0 30 c0 20 -5 30 -15 30 -12 0
-15 15 -14 83 0 45 3 77 5 71 3 -6 17 -56 33 -110 l28 -99 48 0 48 0 28 102
c37 139 37 140 38 41 1 -72 -2 -88 -14 -88 -10 0 -15 -10 -15 -30 l0 -30 75 0
75 0 0 30 c0 20 -5 30 -15 30 -12 0 -15 18 -15 100 0 80 3 102 15 106 8 4 15
17 15 30 0 24 -2 24 -89 24 l-89 0 -17 -72 c-21 -85 -30 -100 -39 -61 -4 15
-14 52 -22 81 l-15 52 -85 0 -84 0 0 -30z"/>
<path d="M3750 825 l0 -55 35 0 c31 0 35 3 35 25 0 18 5 25 20 25 19 0 20 -7
20 -100 0 -93 -1 -100 -20 -100 -16 0 -20 -7 -20 -30 l0 -30 85 0 85 0 0 29
c0 20 -6 30 -20 34 -18 5 -20 14 -20 101 0 96 0 96 25 96 21 0 25 -5 25 -28 0
-26 3 -28 30 -24 29 4 30 6 30 58 l0 54 -155 0 -155 0 0 -55z"/>
<path d="M4140 856 c0 -13 7 -26 15 -30 12 -4 15 -24 15 -86 0 -47 6 -95 14
-115 25 -60 123 -91 186 -58 51 26 70 72 70 171 0 64 3 84 15 88 8 4 15 17 15
30 0 23 -3 24 -70 24 -68 0 -70 -1 -70 -25 0 -14 7 -28 15 -31 17 -7 21 -116
6 -157 -13 -33 -48 -44 -70 -23 -24 24 -30 173 -7 182 9 3 16 17 16 30 0 23
-3 24 -75 24 -72 0 -75 -1 -75 -24z"/>
<path d="M4550 856 c0 -13 7 -26 15 -30 12 -4 15 -26 15 -106 0 -82 -3 -100
-15 -100 -10 0 -15 -10 -15 -30 l0 -30 65 0 65 0 0 30 c0 20 -5 30 -15 30 -12
0 -15 15 -14 83 l1 82 31 -112 31 -113 48 0 c36 0 48 4 52 18 3 9 17 59 30
111 14 51 28 96 31 99 3 3 5 -34 5 -81 0 -71 -3 -87 -15 -87 -10 0 -15 -10
-15 -30 l0 -30 70 0 70 0 0 30 c0 17 -4 30 -10 30 -6 0 -10 42 -10 106 0 67 4
103 10 99 6 -4 10 7 10 24 l0 31 -85 0 -84 0 -11 -42 c-36 -137 -36 -137 -65
-25 l-18 67 -88 0 c-87 0 -89 0 -89 -24z"/>
<path d="M246 851 c-5 -8 35 -31 54 -31 19 0 10 17 -15 28 -31 14 -32 14 -39
3z"/>
<path d="M1118 844 c-38 -20 -36 -36 2 -23 17 6 30 17 30 25 0 17 2 17 -32 -2z"/>
<path d="M686 756 c-4 -33 -13 -67 -18 -76 -6 -10 -8 -25 -4 -35 5 -13 13 -16
34 -10 15 4 59 10 97 14 l70 7 -73 8 c-40 5 -76 14 -80 20 -4 6 -9 38 -12 71
l-5 60 -9 -59z"/>
<path d="M210 660 c0 -18 7 -20 59 -20 54 0 59 2 54 20 -5 17 -14 20 -59 20
-47 0 -54 -2 -54 -20z"/>
<path d="M1070 660 c0 -18 7 -20 60 -20 53 0 60 2 60 20 0 18 -7 20 -60 20
-53 0 -60 -2 -60 -20z"/>
<path d="M263 498 c-23 -11 -31 -28 -13 -28 19 0 59 23 54 31 -6 11 -13 10
-41 -3z"/>
<path d="M1090 496 c0 -8 14 -19 30 -25 17 -6 30 -6 30 -1 0 5 -13 16 -30 25
-25 13 -30 13 -30 1z"/>
<path d="M1029 327 c-14 -12 -44 -49 -68 -82 -24 -33 -60 -77 -79 -97 -20 -21
-33 -38 -29 -38 17 0 64 30 88 57 25 26 116 145 133 172 13 20 -20 12 -45 -12z"/>
<path d="M1063 287 c-32 -36 -113 -147 -108 -147 20 0 60 41 95 97 43 67 49
90 13 50z"/>
</g>
</svg>
